<svg width="30" height="30" viewBox="0 0 30 30" fill="none" xmlns="http://www.w3.org/2000/svg">
<g id="Group">
<path id="Vector" opacity="0.2" d="M29.9999 16.1538C29.9999 23.8004 23.8003 30 16.1538 30C8.50723 30 2.30762 23.8004 2.30762 16.1538C2.30762 8.50729 8.50723 2.30768 16.1538 2.30768C23.8003 2.30768 29.9999 8.50729 29.9999 16.1538Z" fill="#3535B5"/>
<path id="Vector_2" fill-rule="evenodd" clip-rule="evenodd" d="M9.03228 9.03228C8.49648 9.56808 8.07147 10.2042 7.7815 10.9042C7.49153 11.6043 7.34229 12.3546 7.34229 13.1123C7.34229 13.87 7.49153 14.6203 7.7815 15.3204C8.07147 16.0204 8.49648 16.6565 9.03228 17.1923C9.56807 17.7281 10.2041 18.1531 10.9042 18.4431C11.6042 18.733 12.3546 18.8823 13.1123 18.8823C13.87 18.8823 14.6203 18.733 15.3204 18.4431C16.0204 18.1531 16.6565 17.7281 17.1923 17.1923C18.2432 16.1042 18.8247 14.6469 18.8115 13.1342C18.7984 11.6215 18.1917 10.1745 17.122 9.10487C16.0523 8.03521 14.6053 7.42846 13.0927 7.41532C11.58 7.40217 10.1227 7.98368 9.03458 9.03459L9.03228 9.03228ZM16.3754 16.3754C15.9485 16.8118 15.4394 17.1592 14.8773 17.3975C14.3153 17.6358 13.7116 17.7602 13.1012 17.7635C12.4907 17.7669 11.8857 17.6491 11.3211 17.4171C10.7565 17.185 10.2435 16.8432 9.81189 16.4115C9.38028 15.9798 9.03859 15.4668 8.80661 14.9021C8.57463 14.3375 8.45697 13.7324 8.46044 13.122C8.46391 12.5116 8.58844 11.9079 8.82683 11.3459C9.06521 10.7839 9.41271 10.2748 9.8492 9.84805C10.7181 8.99857 11.8869 8.52601 13.102 8.53292C14.3171 8.53982 15.4805 9.02564 16.3396 9.88494C17.1988 10.7442 17.6844 11.9077 17.6911 13.1228C17.6978 14.3379 17.225 15.5066 16.3754 16.3754Z" fill="#FB5B4D"/>
<path id="Vector_3" d="M16.3753 18.0311C16.159 17.8146 16.0375 17.521 16.0376 17.215C16.0377 17.0634 16.0676 16.9133 16.1256 16.7733C16.1837 16.6333 16.2687 16.5061 16.3759 16.399C16.4831 16.2919 16.6104 16.2069 16.7504 16.149C16.8904 16.091 17.0405 16.0612 17.1921 16.0613C17.4982 16.0614 17.7917 16.1831 18.008 16.3996L21.2711 19.6638C21.3813 19.7703 21.4692 19.8976 21.5297 20.0384C21.5902 20.1791 21.622 20.3305 21.6233 20.4837C21.6246 20.637 21.5954 20.7889 21.5374 20.9307C21.4794 21.0725 21.3937 21.2013 21.2854 21.3097C21.1771 21.418 21.0482 21.5037 20.9064 21.5617C20.7646 21.6197 20.6127 21.6489 20.4595 21.6476C20.3063 21.6462 20.1549 21.6144 20.0141 21.5539C19.8733 21.4935 19.746 21.4056 19.6396 21.2954L16.3753 18.0311Z" fill="#FB5B4D"/>
<path id="Vector_4" fill-rule="evenodd" clip-rule="evenodd" d="M15 28.2692C22.3281 28.2692 28.2692 22.3281 28.2692 15C28.2692 7.6719 22.3281 1.73075 15 1.73075C7.6719 1.73075 1.73075 7.6719 1.73075 15C1.73075 22.3281 7.6719 28.2692 15 28.2692ZM15 29.4231C22.9661 29.4231 29.4231 22.9661 29.4231 15C29.4231 7.03383 22.9661 0.576904 15 0.576904C7.03383 0.576904 0.576904 7.03383 0.576904 15C0.576904 22.9661 7.03383 29.4231 15 29.4231Z" fill="#3535B5"/>
</g>
</svg>
